<svg xmlns="http://www.w3.org/2000/svg" viewBox="0 0 251.6 215.03"><defs><style>.cls-1{fill:#bee0d9;}</style></defs><title>Artboard 11 copy 3</title><g id="Person_4" data-name="Person 4"><path id="Icon_simple-instagram" data-name="Icon simple-instagram" class="cls-1" d="M120.4,30.45c-21,0-23.6.1-31.84.46a57,57,0,0,0-18.76,3.6A39.43,39.43,0,0,0,47.21,57.1a56.72,56.72,0,0,0-3.59,18.76c-.38,8.23-.46,10.85-.46,31.83s.09,23.61.46,31.85a57,57,0,0,0,3.59,18.76A39.51,39.51,0,0,0,69.8,180.89a57,57,0,0,0,18.76,3.59c8.24.39,10.86.46,31.85.46s23.6-.09,31.84-.46A57.29,57.29,0,0,0,171,180.89a39.49,39.49,0,0,0,22.57-22.6,57,57,0,0,0,3.6-18.76c.38-8.24.46-10.86.46-31.85s-.1-23.6-.46-31.84a57,57,0,0,0-3.6-18.76,38,38,0,0,0-8.9-13.68A37.6,37.6,0,0,0,171,34.49a56.72,56.72,0,0,0-18.76-3.59C144,30.53,141.38,30.45,120.4,30.45Zm0,13.9c20.62,0,23.08.11,31.22.46A42.55,42.55,0,0,1,166,47.48a25.46,25.46,0,0,1,14.67,14.65,42.54,42.54,0,0,1,2.65,14.34c.37,8.15.45,10.59.45,31.22s-.09,23.07-.47,31.21a43.61,43.61,0,0,1-2.71,14.34,24.7,24.7,0,0,1-5.79,8.9,24.21,24.21,0,0,1-8.88,5.76,43.13,43.13,0,0,1-14.39,2.66c-8.2.37-10.61.45-31.26.45s-23.08-.1-31.27-.48a43.63,43.63,0,0,1-14.38-2.71,24,24,0,0,1-8.9-5.77,23.39,23.39,0,0,1-5.79-8.89,43.63,43.63,0,0,1-2.71-14.38c-.29-8.11-.39-10.61-.39-31.18s.1-23.09.39-31.29a43.83,43.83,0,0,1,2.7-14.38A22.92,22.92,0,0,1,65.67,53a22.69,22.69,0,0,1,8.87-5.78,42.67,42.67,0,0,1,14.3-2.71c8.21-.29,10.63-.39,31.27-.39l.29.2Zm0,23.68a39.67,39.67,0,1,0,39.66,39.66A39.66,39.66,0,0,0,120.4,68Zm0,65.41a25.75,25.75,0,1,1,25.75-25.75,25.75,25.75,0,0,1-25.75,25.75Zm50.5-67a9.27,9.27,0,1,1-9.27-9.27h0A9.28,9.28,0,0,1,170.9,66.47Z"/></g></svg>
