<svg id="Person_1" data-name="Person 1" xmlns="http://www.w3.org/2000/svg" viewBox="0 0 200 450"><defs><style>.cls-1{fill:#649abf;}.cls-2{fill:#e2c4a6;}.cls-3{fill:#318bbc;}.cls-4{fill:#055477;}.cls-5{fill:#e7d1b7;}.cls-6{fill:#f7ae66;}.cls-7{fill:#f8bf7c;}.cls-8{fill:#63492e;}</style></defs><title>person_1</title><path class="cls-1" d="M67.34,214.68c-.85,6.18-1.29,11.45-1.54,15.46-.45,7.4-.8,13.48,0,21.35.38,3.66.48,2.58,1.79,11.64,2,13.51,1.23,12.34,2.43,18.53,1.5,7.71,2.77,10.17,2.94,16.75.08,2.93-.17,2.56-.12,6.9,0,3.3.21,6.46,1,15.08.62,6.61.63,6,.89,9.08.92,10.74.16,11.21.9,17.77.19,1.71,1.28,6.93,3.45,17.38,2,9.72,2.27,10.28,2.17,12.53-.15,3.29-.84,5.55.64,7.93s3.46,2.15,4.35,4.6c.76,2.1-.44,3,.38,5.88.3,1.08.86,3.07,2.43,3.83s2.3-.34,5.11-.76a17.47,17.47,0,0,1,10.1,1.66c1.31.71,1.8,1.26,2.43,1,1.58-.6,1.23-5.16,1-7.8-.33-4.34-1-4.29-1.53-9.07-.49-4.25-.12-5.52-1-8.95a34.77,34.77,0,0,0-1.66-4.6c-2.1-5.34-.68-8-1.28-15-.64-7.35-2.45-6.95-3.45-16.36a33.65,33.65,0,0,1,0-9.59c.51-3.07,1.18-3.94,1.66-7.16.53-3.59.15-5.67,0-8.95-.21-4.35.24-5.14.89-13.8.63-8.32.34-9.44.77-16.11a199.49,199.49,0,0,1,2.43-20.71A67,67,0,0,0,109,275.4c2.86,5.9,3.88,5.76,6.65,11a72.23,72.23,0,0,1,7.54,24.67,45.16,45.16,0,0,0,1.41,8.06c1,3.86,1.56,3.68,2.3,6.52s.27,3.43.25,15.34a36,36,0,0,1-.25,5c-.41,3.21-1,3.84-1.41,6.26-1,5.68,1.1,7.12-.25,12.66-.61,2.5-1,1.93-1.41,4.09-.92,4.67,1,6.17.64,11.38-.07,1-.47,2.86-1.28,6.64-.92,4.35-1.23,5-.89,6.4.41,1.74,1.29,2.6,1.4,5,.07,1.3-.17,1.57.13,2.05,1.2,1.9,6.86.41,7.93.12,4.26-1.12,5.33-2.68,8-2.17.79.15,1.59.45,2.17,0,.85-.64.46-2.22.39-4-.06-1.25.35-3,1.15-6.39,1.61-6.9,4.57-9.17,5.88-15.47.54-2.62-.06-1.8.12-11.38.11-5.44.33-7.35.64-13.8.42-8.65.21-9.44.52-17,.67-16.9,1.81-16.38,1.53-25.32-.22-6.81-.83-5.27-1.79-18.79-.34-4.77-.56-9.13-1.28-16.36-.66-6.64-1.06-8.95-1.28-10.1a85.64,85.64,0,0,0-3.58-13.16,71.79,71.79,0,0,0-5.49-12.4c-2.16-3.78-3.61-5.44-4.86-9.21a28.36,28.36,0,0,1-1.41-7.41,246.24,246.24,0,0,1-27.35.89A245.48,245.48,0,0,1,67.34,214.68Z"/><path class="cls-2" d="M81.38,93.6a19.92,19.92,0,0,1-2,18.2l20.22,14,8.52-9.67c1.92-2.25,4.07-5.43,3.11-8-.78-2.13-3.09-2.29-4.63-4.38-1.33-1.8-2.17-5.16.51-12Z"/><path class="cls-3" d="M105.27,399.27c.67,1,.59,2.33.39,5-.26,3.47-.87,4.47-1.34,7.43-.92,5.73.62,6.47-.77,9.48a10.45,10.45,0,0,1-5.35,5.2c-4,1.64-7.78,0-9.17-.55-1.57-.67-3.87-1.65-5.19-3.95-2-3.54-.35-7.86.68-10.52,1.23-3.19,2-2.88,2.93-5.91,1.1-3.67.31-5.32,1.8-6.79,1.09-1.08,2.7-1.18,5.86-1.32C99.72,397.14,103.69,397,105.27,399.27Z"/><path class="cls-4" d="M99.2,397.46a9.19,9.19,0,0,0,0,4.83c.74,2.55,2.32,3.11,3.58,6.59.59,1.65.59,2.51.94,2.53.77,0,1.74-4.13,2-7.58a28,28,0,0,0-.11-5.38Z"/><path class="cls-4" d="M94.15,397.24a20.32,20.32,0,0,1-1.05,4.06c-.65,1.74-1.92,5.16-5.15,7.36A10.94,10.94,0,0,1,85.32,410a17.36,17.36,0,0,0,3.37-11.86Z"/><path class="cls-3" d="M122.59,400.07c-.61.62-.71,2.44-.9,6.08-.14,2.55,0,3,.22,3.38.92,1.66,3,1.7,5.41,2.47,2.64.86,3.06,1.79,7.2,4.62,3.89,2.66,7.53,5.14,12.5,6.75a23.54,23.54,0,0,0,11,.9c4-.67,4.52-1.95,4.61-2.25.41-1.25-.7-2.63-1.8-3.94-4-4.78-7.45-8.2-9.23-10-3.11-3.18-3.72-4.12-7-7.2-1.48-1.4-2.74-2.52-3.6-3.27a27.45,27.45,0,0,0-4.62.45c-2.75.5-3.25,1-5.29,1.46C126.15,400.58,124.11,398.53,122.59,400.07Z"/><path class="cls-4" d="M121.69,409.19c-1,.64-.26,3.46.12,4.72l6.56,3.52a2.39,2.39,0,0,1,1.23-1.76c1.15-.39,2.58,1.07,3.67,2.09a52.17,52.17,0,0,0,7.35,5.27c4.1,2.55,8.1,2.51,15.58,2.42,3.89-.05,5.74-.51,6.35-1.76a3.07,3.07,0,0,0-.11-2.42,20.67,20.67,0,0,1-3.45.88,24,24,0,0,1-7.91-.11A41.72,41.72,0,0,1,140,418.53c-2-.94-4.09-2.13-8.24-4.51-1.82-1-3.73-1.93-5.56-3C123.42,409.52,122.35,408.78,121.69,409.19Z"/><path class="cls-4" d="M82.83,418.71c.69-.23,1.3,2.67,3.61,4.29,1.56,1.1,3.21,1.09,6.51,1.07,2.72,0,4.72,0,6.92-1.18,1.88-1,2.9-2.29,3.41-1.93s.14,1.81-.42,2.79c-.35.62-1.46,2.09-6.4,2.68-3.72.45-8.23,1-11.57-1.82a6.29,6.29,0,0,1-2.46-4.14C82.4,419.92,82.42,418.84,82.83,418.71Z"/><path class="cls-4" d="M136.08,415.29c1.83-.36,2.48-3.44,2.85-5.21a14.36,14.36,0,0,0-.54-8.07,14.67,14.67,0,0,0-1.43-2.76,18.72,18.72,0,0,1-5.71,1.77,19.41,19.41,0,0,1-7.47-.39,13.78,13.78,0,0,1-.44,3.94,13.23,13.23,0,0,0-.66,3.24,3.35,3.35,0,0,0,.11,1.68c.58,1.13,2.15.86,4.72,1.77.77.27.51.25,5.71,2.95C135.17,415.22,135.54,415.4,136.08,415.29Z"/><path class="cls-4" d="M140.25,399.05c1.16,1.54,2.19,2.8,3,3.74,2.49,3,3.41,3.74,4.61,4.24a8.59,8.59,0,0,0,3.08.59,24.56,24.56,0,0,1-4.07-3.94c-1.72-2.12-2.58-4-4.72-4.53A5.21,5.21,0,0,0,140.25,399.05Z"/><path class="cls-3" d="M108.65,255.09c1.22-.9,2.6-1.94,2.86-2.14,1.61-1.28,1.89-4.14,2.23-8.13a41.5,41.5,0,0,0-.44-11.08,38.28,38.28,0,0,0-.9-3.84l-6.7-.27a73.65,73.65,0,0,1,1.61,26.45Z"/><path class="cls-5" d="M43.88,205.63c-.28,2.42,2.86,3.9,6.56,7.31s5.92,7.17,9.1,11.78c3.06,4.44,4.36,6.9,7.91,10.9.55.61,1.36,3,3.28,3.43,1,.21,2.14,0,2.27-.5.19-.66-1.62-1.8-1.65-1.77a4.17,4.17,0,0,0,2.11,1.48c1.16.3,2.52.07,2.76-.53a1.59,1.59,0,0,0,0-1,1.87,1.87,0,0,0-.07-.18,1.84,1.84,0,0,0-.91-.82c-1.3-.63-1.85-1.11-1.9-1a5.26,5.26,0,0,0,4.13,2.18,3,3,0,0,0,2.31-1.24,1.66,1.66,0,0,0,.16-1.44,1.13,1.13,0,0,0-.62-.49,22.94,22.94,0,0,1-3.13-1.94c-.07.1,2.36,2.76,4.45,2.27,1.48-.35,2.7-2.25,2.31-3.43-.17-.54-.59-.63-1.77-1.4a10.94,10.94,0,0,1-4-3.84c-.58-1.12-.84-2.53-.5-2.72s1.16,1,3,2.72,3.42,3.14,5.48,3.34c1.09.11,2.68-.08,3-.86.22-.58-.34-1.31-1.28-2.31a33.78,33.78,0,0,0-5-4.33c-4.07-3.07-3.56-3.65-5.77-4.58a18.94,18.94,0,0,0-5-1.2c-2.12-.21-2.48.12-3.63-.2-1.8-.51-2.76-1.84-4.59-4.39-2.2-3.05-3.76-5.23-4-8.35-.14-1.82.26-2.8-.51-3.58-1-1-3-.57-5.11-.08a14.42,14.42,0,0,0-7.41,3.92C44.61,204,44,204.66,43.88,205.63Z"/><path class="cls-6" d="M67.79,206.26l12.44,4.55c10.66,3.93,11.8,4.42,14.59,5,5.79,1.12,10.66.91,16.33.67,2.32-.1,5.25-.34,11.11-.81,3.31-.26,6-.5,7.89-.67.14,3.21.27,6.43.4,9.64-3.7.37-9,.8-15.39.94-8.69.18-13,.27-18.33-.67-5.68-1-10.34-2.86-19.68-6.56-4.36-1.73-7.94-3.29-10.44-4.42Z"/><path class="cls-5" d="M152.08,202.41l-2.28,2.89c-1.79,1.75-1.73,3.31-4.68,8.89-2.35,4.43-2.74,4.09-3.16,5.91-.3,1.3-.27,3.27-.21,7.22,0,3.08.17,4.3-.71,5.7-.33.54-.29.24-2.14,2.4-1.28,1.49-1.65,2-2.5,2.32s-2.23.22-2.45-.3c-.13-.32.14-.72,1-1.71.66-.76,1.58-1.76,2.76-2.89-.12.29-1.52,3.58-4.25,3.9-.76.09-2.5,0-3.15-1a1.27,1.27,0,0,1-.22-.92c.15-.71,1.06-.95,2.23-1.53a11.82,11.82,0,0,0,2.76-1.88s-2.76,3-5.43,2.62a4.86,4.86,0,0,1-2.1-1c-.44-.38-1-.88-1-1.45s.75-.7,1.75-1.62a5.7,5.7,0,0,0,1.66-2.41c.27-.85,0-1.06,0-2.76,0-2.18.43-3.27.18-3.37s-1.3,1.54-2,3c-1.17,2.56-.89,3.4-2.11,5.78-1,2.07-1.89,2.71-2.71,2.94-.19,0-1.06.3-1.53-.13s-.23-1.44.09-2.85c.76-3.42.28-3,.83-4.73a18.7,18.7,0,0,1,2.54-4.82c1.69-2.63,2.54-4,4.11-4.9s2.06-.45,3.46-1.4,2-2.42,3.42-5.47a37,37,0,0,0,2.58-7c.16-.67.29-1.28.66-2.76,1-4,1.3-4.41,1.66-4.68,1.07-.81,2.61-.31,5.08.48,3.78,1.22,5.61,3.16,6.22,4.34a2.74,2.74,0,0,1,.35,1.48A3.11,3.11,0,0,1,152.08,202.41Z"/><path class="cls-3" d="M66.06,238.35a18.24,18.24,0,0,0,6.78-.07,15,15,0,0,0,6.65-2.89,14.68,14.68,0,0,0,4.87-7.28,11,11,0,0,1-2.47,6.71,11.41,11.41,0,0,1-5.72,3.53A16.76,16.76,0,0,1,66.06,238.35Z"/><path class="cls-3" d="M140.53,238.14a12.08,12.08,0,0,1-1.57.33,7.77,7.77,0,0,1-3.28-.42,11.33,11.33,0,0,1-5.58-3.24,10.48,10.48,0,0,1-2.48-5.2,4.46,4.46,0,0,0-1.2,2.88c0,3.7,5.79,7.42,10.54,6.8A11.54,11.54,0,0,0,140.53,238.14Z"/><path class="cls-7" d="M77.62,110.87c-2.21,0-2.91,1-8.69,4.62s-6.26,3.29-11.28,6.66c-5.72,3.84-7.14,5.64-7.94,6.84a20.52,20.52,0,0,0-2.78,6.65c-1.55,5.74-2,10.46-2.59,18.49-.91,12.46-.68,12.92-1.66,15-2.08,4.38-4.69,5.68-5.36,10.36-.26,1.78.13,3.86.92,7.95,1.64,8.47,2.46,12.71,4.44,13.12,2.42.51,3.51-4.63,8.5-5.73,4.14-.91,7.14,1.79,8.14.56,1.18-1.46-3.39-4.7-3.51-10.17-.07-2.68,1-3.22,4.43-10.91,2.57-5.75,3.88-9.73,4.26-9.61s-2.59,6.15-1.3,13.68c.56,3.25,1.18,2.38,3.14,9.06,1.93,6.52,2.87,9.85,1.85,13.12-.53,1.73-1.32,2.81-.92,4.44.59,2.39,3.18,3.66,4.44,4.25,16.21,7.6,26.25,8.69,26.25,8.69,10.54,1.14,12.92-.43,17.35-.45a19.21,19.21,0,0,1,6.31.82c1.78.51,2.8,1.06,4.06.66a4.78,4.78,0,0,0,2.65-2.73,4.31,4.31,0,0,0,2.73-1.16c1.7-1.77.93-5,.73-6-1-4.67,1.28-5.15,2.77-21.45a173.94,173.94,0,0,0,1.11-22c-.07-3.41-.37-11.27-.18-11.28s-.83,9,3.51,12.39c.61.47,1.91,1.28,2,2.59s-1.1,1.73-1.48,3.33c-.48,2,1.1,2.92,1.67,5.73.36,1.79-.13,2.2-.56,5.91-.54,4.71-.82,7.06,0,8.32s4.48,2,11.65,3.14c1.42.24,2,.32,2.77,0,2.17-.92,2.09-3.92,3.33-9.79,1.84-8.7,3.75-10.22,2.4-13.5-.68-1.68-1.71-2.59-2-5-.29-2.24.33-3.58.56-5.18.5-3.52-1.2-6.16-3-9.61-3.39-6.64-1.27-5.06-7-18.67-4-9.57-4.32-8.54-5.36-12.39s-1.13-6.26-3.33-8.5c-1.14-1.17-2-1.43-7.58-3.33-7.65-2.62-9.67-3.39-13.49-4.07-5.5-1-7-.39-8,.37-1.51,1.24-1.34,2.88-2,5.18-1.47,4.87-6,10.08-10.53,10.72-3.13.44-6.34-1.74-12.76-6.1C81.4,112.52,80.35,110.9,77.62,110.87Z"/><path class="cls-6" d="M98.63,124.74c.1-.15-3-3-8.46-6.34A38.55,38.55,0,0,1,83.1,113c-1.24-1.21-2.31-2.45-2.28-4.07A4.59,4.59,0,0,1,82,106.11a10.94,10.94,0,0,0-4.88,6.75,9.72,9.72,0,0,0-.08,3.18c.39,2.84,1.83,4.21,4.23,7.89.77,1.19,1.85,2.92,3,5.12.34-3.72,1.3-7.24,3.74-8.3C92.13,119,98.49,125,98.63,124.74Z"/><path class="cls-6" d="M99.15,127.53c-.15-.1,1.52-4,5.08-9.27a37.91,37.91,0,0,0,4.23-7.81c.63-1.61,1.1-3.18.4-4.65a4.58,4.58,0,0,0-2.29-2.09,10.94,10.94,0,0,1,7.23,4.14,9.47,9.47,0,0,1,1.39,2.85c.82,2.75.07,4.6-.6,8.94-.21,1.4-.48,3.42-.62,5.9-1.85-3.24-4.19-6.05-6.84-6C102.7,119.61,99.36,127.66,99.15,127.53Z"/><path class="cls-6" d="M45.69,206.93A10.58,10.58,0,0,1,49.34,203c1.89-1.15,5.06-3.1,7.7-1.63,2.25,1.25,2.68,4.16,2.76,4.78,2.26-3.64,2.77-7.65,1-10.23a7,7,0,0,0-2.25-2c-.67-.4-2.29-1.2-7.64-.73-3.28.28-4.92.42-6.07,1.12-3.12,1.88-3.88,5.49-4.05,6.29A11.38,11.38,0,0,0,42,208.17a13.36,13.36,0,0,0,8.21,6.41,18.44,18.44,0,0,0-2.7-3.26c-1.12-1.07-2.1-1.72-2.19-2.87A2.78,2.78,0,0,1,45.69,206.93Z"/><path class="cls-6" d="M152.3,203.78c.59-.1,1.09-.52,3-4.69,2.94-6.33,2.72-7.38,2.46-8-.57-1.36-1.83-1.94-4.23-3-2.89-1.32-5.29-1.53-8.52-1.77-4.88-.38-5.81.36-6.11.63-.79.71-1,1.92-1.43,4.34-.51,2.9.09,2.49-.06,8.11,0,.66-.05,1.56.35,1.72.56.23,1.22-1.36,2.68-2.12,2.26-1.16,5.21.28,6.17.75C150.19,201.45,150.69,204,152.3,203.78Z"/><path class="cls-5" d="M76,83.71a24.87,24.87,0,0,0,1.31,5.85,28.64,28.64,0,0,0,1.13,2.71,24.38,24.38,0,0,0,10.14,10.66c2.17,1,5,2.42,8.56,1.75,4.36-.83,6.88-4.24,8.39-6.29a22.83,22.83,0,0,0,4.19-14c.1,1.57.17,2.79.19,3.76,0,.2,0,.57.21.66.42.19,1.38-1.14,1.48-1.28.72-1,1-2,1.38-4.44.64-3.87.54-4.62.07-5.27,0,0-.78-1-1.52-.89-.9.16-1.1,1.83-1.41,1.79s-.07-2.94-.52-6.37a27.12,27.12,0,0,0-.93-4.24c-1-3.73-1.55-5.6-3.13-6.78a5.36,5.36,0,0,0-3.93-1.24,13.61,13.61,0,0,1-2.34.62,9.51,9.51,0,0,1-2.41-.31c-1.94-.23-2.26.76-4.92,1.13-2,.28-2.13-.22-3.93.11a10.51,10.51,0,0,0-3.68,1.48A17.27,17.27,0,0,0,78,70.54a23.15,23.15,0,0,0-2.33,10.29c-.24-1.36-1.06-2.25-1.82-2.25s-1.48,1.3-1.56,1.47c-.57,1.29-.17,2.54.52,4.59a9,9,0,0,0,2.25,4c.06,0,1.4,1.26,1.82.95s0-1-.32-2.19A23.76,23.76,0,0,1,76,83.71Z"/><path class="cls-8" d="M111.28,76.82a17.14,17.14,0,0,0-.22-9.06c-.74-2.8-1.58-6-3.93-6.65a4.1,4.1,0,0,0-2.62.21,6.77,6.77,0,0,0,0-4.91c-1.16-2.62-4.11-3.44-6.66-4.15a15.76,15.76,0,0,0-8.4-.21c-2.5.66-3,1.54-7.42,3.49-2,.87-3.68,1.48-4.81,1.85.84.08,1.78.25,1.86.66s-1.16,1-2.29,1.86a10,10,0,0,0-3.39,5.34c-.49,2,.48,2,1.2,7.1.5,3.5.28,5.24,1.64,7.64a11.13,11.13,0,0,0,1.42,2A26.71,26.71,0,0,1,78,75.62c.44-2.57.83-5,2.51-7.53a14.49,14.49,0,0,1,14.84-6.33,16.73,16.73,0,0,1,9.06,4.8,18.64,18.64,0,0,1,4.48,7.21,19,19,0,0,1,1,6.66A16.77,16.77,0,0,0,111.28,76.82Z"/></svg>
