<svg xmlns="http://www.w3.org/2000/svg" viewBox="0 0 200 450"><defs><style>.cls-1{fill:#649abf;}.cls-2{fill:#055477;}.cls-3{fill:#4e6871;}.cls-4{fill:#e2c4a6;}.cls-5{fill:#544232;}.cls-6{fill:#e7d1b7;}.cls-7{fill:#63492e;}.cls-8{fill:#513620;}</style></defs><title>Person_3</title><g id="Person_3" data-name="Person 3"><path class="cls-1" d="M78.17,384.73a25.05,25.05,0,0,1,.65,9.06c-.44,3.83-1.5,4.85-2.8,10.54-1.14,5-1.69,7.56-.82,10.38a11.43,11.43,0,0,0,5.6,6.92c4,2,9.42,1.24,12-1.81.68-.8,1.41-2,1.65-10.38.16-5.74.24-8.61-.17-11.86A52.82,52.82,0,0,0,90,382.42Z"/><path class="cls-1" d="M113.42,384.73a25.24,25.24,0,0,0-.66,9.06c.44,3.83,1.51,4.85,2.81,10.54,1.13,5,1.69,7.56.82,10.38a11.43,11.43,0,0,1-5.6,6.92c-4,2-9.42,1.24-12-1.81-.69-.8-1.41-2-1.65-10.38-.16-5.74-.24-8.61.17-11.86a52.82,52.82,0,0,1,4.28-15.16Z"/><path class="cls-2" d="M86.41,403.08c-.67,0-1.53-.05-2.66-.14l.09-1a23.26,23.26,0,0,0,3.34.11c-.38-.21-.91-.46-1.32-.65-1.85-.87-3-1.44-2.89-2.3s1.27-1.05,2.53-1.26l.4-.07-.88-.23c-1.62-.41-3-.77-3-1.67s1.4-1.43,3.73-2.16l.9-.29h-.23a28,28,0,0,0-3.59.08c-.65.05-1.08.08-1.14-.43s.14-.54,1.66-.86c3.07-.67,4.82-1.2,5.21-1.6a12.61,12.61,0,0,0-2.93-.94c-2.41-.59-3.77-1-3.78-1.92s1-1.56,6-2.47l.18,1c-4,.73-4.93,1.28-5.14,1.48a12.15,12.15,0,0,0,3,1c2.17.53,3.74.92,3.74,1.9,0,.75-1,1.29-2.92,1.83,1.29.08,1.87.22,1.93.76s-.77.92-2.57,1.49a12.3,12.3,0,0,0-3,1.17,10.4,10.4,0,0,0,2.23.73c1.51.38,2.34.59,2.32,1.28s-.78.78-1.92,1a7.35,7.35,0,0,0-1.66.4,10.64,10.64,0,0,0,2.28,1.27c1.53.72,2.37,1.11,2.28,1.79C88.51,402.79,88.11,403.08,86.41,403.08Z"/><path class="cls-2" d="M104.86,402.36c-1.72,0-2.12-.28-2.19-.77-.08-.68.76-1.06,2.3-1.74a11.48,11.48,0,0,0,2.24-1.19,8.2,8.2,0,0,0-1.63-.37c-1.14-.18-1.9-.3-1.92-1s.81-.88,2.33-1.25a10.22,10.22,0,0,0,2.24-.71,16.86,16.86,0,0,0-3-1.07c-1.86-.56-2.63-.79-2.57-1.45s.57-.66,1.8-.73c-1.88-.52-2.79-1-2.79-1.74,0-.92,1.35-1.28,3.74-1.84a14.15,14.15,0,0,0,3-.9c-.26-.21-1.27-.72-5.12-1.4l.17-1c5,.88,6,1.56,6,2.39s-1.38,1.29-3.79,1.86a13.49,13.49,0,0,0-2.9.88c.66.57,4,1.27,5.19,1.5,1.52.32,1.72.36,1.66.86s-.47.47-1.15.42a30.33,30.33,0,0,0-3.58-.07h-.13l.79.24c2.34.71,3.77,1.18,3.74,2.1s-1.36,1.2-3,1.61l-.77.2.29,0c1.26.21,2.45.4,2.54,1.23s-1,1.4-2.9,2.23c-.38.17-.87.39-1.24.58a24.87,24.87,0,0,0,3.27-.1l.08,1C106.38,402.32,105.52,402.36,104.86,402.36Z"/><path class="cls-3" d="M54.44,239.2c.12,2.56.29,6.46.45,11.2.58,17,.28,20.87.67,28.68.29,5.74.63,7.1,3.81,30,3.72,26.7,3.26,24.91,4,29.57a235.87,235.87,0,0,0,13.66,48.4L91.64,386c-.34-4-.79-9.95-1.12-17.25-.55-12-.42-19.68-.45-31.37,0-21.49-.52-19.42-.45-33.61.11-19.7,1.13-41.46,2-41.45.58,0,.71,9.26,2,27.33,1.2,16.69,2.27,25.2,3.13,34.51a535.85,535.85,0,0,1,2,59.37l16.58.9c1.83-9.41,3.58-19.51,5.15-30.25a601.89,601.89,0,0,0,6.5-78c.15-11.59-.08-21.86-.45-30.48-.07-1.79-.15-3.58-.22-5.37Z"/><path class="cls-4" d="M104.82,104.39c1.62,1.07-.91,5.85,1.1,12.88.33,1.15,2,7.11,6.07,8.69.37.14.72.23,4.42.32,6,.14,7.12-.06,7.45.64.69,1.45-2.41,5.41-5.52,8-2.49,2.11-10,7.62-30.91,4.82-10.41-1.39-23.85-4.8-23.73-8,.09-2.48,8-1.1,13-8,4.55-6.32,2.7-14,6.35-15.45,2.93-1.2,4.62,3.55,9.38,3.54C98.87,111.78,102.67,103,104.82,104.39Z"/><path class="cls-5" d="M139.55,154.76c-.32-9.38-1.13-20.61-9-25.91a18.8,18.8,0,0,0-7.82-2.93,25.37,25.37,0,0,1-10.76,8.55c-2.33.94-4.72,1.45-13,1.47-13,0-19.44.05-24.44-1.95-8.17-3.28-8.74-7.33-13.68-6.85-7,.69-11.69,9.9-13.45,13.44-5.73,11.58-4.28,19.87-4.64,46.68-.17,12.89-.45,6.59-1,30.8-.22,10.13-.43,23.14-.48,38.36l15.39-3.66c-.25-3-.39-5.92-.46-8.71a222.23,222.23,0,0,0,39.34,2.88A221.89,221.89,0,0,0,121.25,245a175.69,175.69,0,0,0,5.8,23.27,79.87,79.87,0,0,0,8.34-20.15c3.71-14.25,1-20.91,1-38.62C136.38,186.29,140.47,181.4,139.55,154.76Z"/><path class="cls-6" d="M41.54,252.75c-.45.94-.47,2.69-.5,6.19a30.82,30.82,0,0,0,.16,4.35,18.89,18.89,0,0,0,1.61,6.08c.64,1.32,1.46,2.52,1.66,2.43s-.17-.93-.52-2.95a16.82,16.82,0,0,1-.26-2s-.48,3.47,1.4,5.23a6,6,0,0,0,3.32,1.3c.49.07,1.48.2,1.65-.16s-.69-.74-1.45-2.07a6.36,6.36,0,0,1-.83-3.16c0-.15,0-.86.11-.88s.32,1.31.83,2.64c.35.92,1.25,3.29,3.31,4.15,1.4.58,3.19.41,3.42-.21s-.78-1-2-2.38a14.17,14.17,0,0,1-2.95-5.54c-.4-1.43-1-3.45-.05-5.44.39-.85,1.27-2.17,2-2,.94.19,1.14,3,1.29,5,.22,3-.18,3.7.31,5.7.38,1.57,1.27,3.75,2,3.68s1.08-3.19,1.24-5a38.4,38.4,0,0,0-.46-10.25,41.42,41.42,0,0,0-2.08-7.36C53.74,250,43.47,248.7,41.54,252.75Z"/><path class="cls-6" d="M77.61,99.64a16.79,16.79,0,0,0,2.87,11.82c.74,1,4.63,6.43,11.1,6.44,7,0,11-6.3,11.73-7.37a17.34,17.34,0,0,0,2.52-10.9,1.83,1.83,0,0,0,1.51.61c1.33-.33,1.55-3.52,1.62-4.44.29-4.31-1.32-6.89-3.64-12.82-3.09-7.93-2.66-9.63-4.84-10.8C97.81,70.75,94.65,72,91,73.4,84.75,75.82,81,79.78,78.08,83c-3.71,4-6.39,7-6.36,11.2,0,.63,0,4.85,2.53,5.85A4.2,4.2,0,0,0,77.61,99.64Z"/><path class="cls-7" d="M98.42,73.05a26.26,26.26,0,0,1-11,15.21,11.51,11.51,0,0,0,2.42-5.67c.06-.5.2-1.71-.12-1.82-.55-.18-1.36,3.29-4.11,5.68S79,89.22,78.74,88.74s3.67-1.65,5.07-5.31a7,7,0,0,0,.42-1.67c-3,1.78-8.61,5.78-9.17,11.57-.21,2.19.4,4.48,1.63,9.06.9,3.37,1.57,4.51,2.65,8.21.63,2.17,1.79,6.12,2.66,10,3.47,15.52,1.36,25.14-.6,29-.29.55-1.19,2.31-1.7,2.17-.71-.2-.23-4-.24-4s-.52,6.87-1.08,14.37c-2-4.72-3.49-7-4.47-6.77q-2.13.45-1.09,16.18A28.19,28.19,0,0,1,69,164.22c-3.76-10.91.45-21.41-1.33-22-.95-.3-2,2.75-6.28,5.92-2.45,1.79-5.5,3.3-5.92,2.77s2.33-2.74,5-6.52c4.57-6.59,6-14,4.95-14.49-.68-.34-1.81,2.85-5.55,4.59-3.9,1.82-8.67,1.15-8.94,0s4-1.84,8.09-5.31c5.62-4.83,7-11.8,8-16.43,1.93-9.51-1.08-10.63.49-21,.82-5.43,1.72-11.46,6.4-16.9,1.35-1.58,5.95-6.94,13.76-8a22.11,22.11,0,0,1,15.7,4.34c7.52,5.64,9,14.6,10.87,26.57a109.46,109.46,0,0,1,.12,32.12c-2.76.15-7-.17-9.66-3-3.94-4.16-2.3-11.27-1.09-16.54,1.14-5,1.77-7.65,4-10.51,1.11-1.42,2.21-2.36,2.17-3.86-.06-2.56-3.38-4.08-5.31-5.56C101.4,88.18,98.45,83.54,98.42,73.05Z"/><path class="cls-8" d="M57.25,234.26a86.67,86.67,0,0,0,3.14-13.53,151.46,151.46,0,0,0,1.81-25.25c.15-19.93-1-31.94-.33-32,.53-.06,1.89,6.45,2.64,12.71C68.25,207.18,57.28,234.27,57.25,234.26Z"/><path class="cls-8" d="M120.13,231c-.32,0-1.36-13.38-1.81-27.73-.64-20.37.26-31.33,2.8-42.25.67-2.86,2.06-8.33,2.48-8.25.63.12-1.44,12.31-2.64,22.61C117.28,207,120.56,230.94,120.13,231Z"/></g></svg>
