<svg xmlns="http://www.w3.org/2000/svg" viewBox="0 0 200 450"><defs><style>.cls-1{fill:#055477;}.cls-2{fill:#e2c4a6;}.cls-3{fill:#e7d1b7;}.cls-4{fill:#356370;}.cls-5{fill:#a0614d;}.cls-6{fill:#dc984f;}</style></defs><title>person_4</title><g id="Person_4" data-name="Person 4"><rect class="cls-1" x="90.4" y="397.62" width="1.55" height="8.04"/><rect class="cls-1" x="91.59" y="397.62" width="1.55" height="8.04"/><path class="cls-2" d="M98.52,104.77c1.62,1.07-.91,5.85,1.1,12.87.33,1.15,2,7.12,6.08,8.69.36.14.71.24,4.41.32,6,.14,7.12-.06,7.45.65.69,1.44-2.41,5.41-5.52,8-2.49,2.12-10,7.63-30.91,4.83-10.41-1.39-23.85-4.8-23.73-8,.09-2.48,8-1.1,13-8,4.55-6.32,2.7-14,6.35-15.45,2.93-1.2,4.62,3.55,9.38,3.54C92.58,112.16,96.37,103.35,98.52,104.77Z"/><path class="cls-3" d="M47.67,187.85A44.29,44.29,0,0,0,50,206.17a28.76,28.76,0,0,0,4.25,8.18,26,26,0,0,0,7.52,6.55l8.18-8.51a40.79,40.79,0,0,1-8.18-28.14Z"/><path class="cls-3" d="M134.22,187.85a169.72,169.72,0,0,1-2.29,18.32,59.26,59.26,0,0,1-2.53,10.41,44.74,44.74,0,0,1-7.26,12.76l-6.81-9a154.41,154.41,0,0,1,3.94-16.83c1.32-4.43,2.83-8.7,2-14.41a25.17,25.17,0,0,0-1.16-4.83Z"/><path class="cls-3" d="M81.55,378.57c-.94,1.83,0,2.76-.53,5.62-.42,2.23-1.4,3.76-2.81,6s-3.35,4.42-3.89,6.12a19.68,19.68,0,0,1-.74,1.93c-.14.31-.31.66-.58,1.16-2.91,5.31-5.51,6.74-4.89,8.11.72,1.59,4.86,1,8.69.52,4.85-.65,7.73-1,10.51-3.46a15,15,0,0,0,4.29-6.76c1.55-4.79.46-8.89-.83-13.73-1.13-4.24-2.15-8-4.41-8.49C84.59,375.19,82.45,376.82,81.55,378.57Z"/><path class="cls-1" d="M71.08,402.2c1.82-.35,2.53.67,5,1.44,5.38,1.65,12.74.17,15.59-4.37,1.77-2.83,1.46-6.3,1.13-6.38-.51-.13-.68,7.63-5,13.27-8,10.41-27.07,9.52-27.83,7-.2-.66,1-.89,4.52-4.7C68.18,404.47,68.87,402.62,71.08,402.2Z"/><path class="cls-3" d="M102.77,384.53c.81,1.5-.71,2.6-.58,5.62.1,2.54,1.26,3.67,4.23,8.32a66,66,0,0,1,5.92,10.88c1.69,4.21,2.67,6.65,1.55,8.1-2,2.57-9.31.18-13.33-2-2.34-1.26-4.57-2.46-5.82-5s-.2-4-1.32-8.24c-.93-3.49-1.91-3.38-2.87-6.56-.66-2.14-2.45-8,.73-11.27S101.35,381.9,102.77,384.53Z"/><path class="cls-1" d="M96.26,412.71c1,.83,1.83.61,3.92,1.22,5.77,1.68,6.55,2.57,8.93,2.3.86-.09,2.8-.31,3.52-1.62.82-1.51-.48-3.55-.27-3.66s2.65,3.25,5,8c.78,1.57,1.37,2.89,1.76,3.79a67.47,67.47,0,0,1-12.58-1.49c-6.38-1.38-10.07-2.18-11.91-5.28s-.93-7.28-.54-7.33S94.37,411.15,96.26,412.71Z"/><path class="cls-4" d="M56.69,258.36c3.55,20.47,6.25,33,8.19,40.94a93.5,93.5,0,0,1,2.38,13.47c.86,8.46,0,12.29,0,18.76-.13,16.32,4.72,29.57,7.92,38.29a130.89,130.89,0,0,0,6.08,14l9.51.22c-.09-4.45-.29-11.35-.8-19.76-1.35-22.41-3.08-25.49-3.33-39.85a250.83,250.83,0,0,1,2-34.11c1-7.9,2.38-16.26,2.12-28.53-.12-5.38-.51-9.74-.8-12.41-.85-.29-20.74-6.67-30.11,3.7A16.52,16.52,0,0,0,56.69,258.36Z"/><path class="cls-4" d="M91.15,384.43,81,384.19l-.1-.2a131.35,131.35,0,0,1-6.09-14c-3.21-8.77-8.08-22-8-38.43,0-2.07.11-3.88.21-5.63a76.24,76.24,0,0,0-.2-13.08,95.19,95.19,0,0,0-2.33-13.26l0-.16c-2.52-10.34-5.28-24.12-8.19-41l0-.11,0-.09a17,17,0,0,1,3.24-5.4c9.63-10.66,30.31-3.88,30.51-3.8l.23.07,0,.24c.43,4.09.7,8.27.79,12.45a152.92,152.92,0,0,1-1.66,25c-.16,1.2-.31,2.38-.45,3.55a248.36,248.36,0,0,0-2,34.05,150.85,150.85,0,0,0,1.31,17.33c.61,5.17,1.37,11.61,2,22.5.4,6.59.66,13.25.79,19.78Zm-9.66-1,8.9.21c-.14-6.4-.4-12.91-.79-19.36-.66-10.88-1.42-17.3-2-22.46a152,152,0,0,1-1.31-17.41,249.71,249.71,0,0,1,2-34.15c.15-1.18.3-2.36.46-3.56a152.89,152.89,0,0,0,1.65-24.92c-.09-4.06-.34-8.15-.76-12.14-2.27-.7-20.73-6-29.49,3.67a16.16,16.16,0,0,0-3.06,5.07c2.91,16.78,5.66,30.51,8.17,40.81l0,.16a92.72,92.72,0,0,1,2.35,13.36,75.61,75.61,0,0,1,.2,13.2c-.09,1.74-.18,3.55-.2,5.6-.13,16.26,4.71,29.44,7.91,38.16A128,128,0,0,0,81.49,383.45Z"/><path class="cls-4" d="M90.16,387.76l11.89.79c.44-2.42,1.15-6.1,2.11-10.56,3.31-15.34,5-18.51,6.6-26.94.83-4.46,1.08-11.87,1.59-26.68.65-19,0-19.2,1.06-25.62,1.14-6.8,3.07-13.48,5.81-23,3.49-12.14,5.2-15.95,2.9-19.55-1.85-2.89-3.86-1.84-12.68-7.39-5.85-3.69-6.9-5.37-9.24-5-4.77.71-7.26,8.67-8.19,11.62-2.09,6.67-1.23,9.88-1.32,21.13-.15,17.6-2.34,19.34-.53,29.58.75,4.24,1.55,6.37,2.11,11.89a79,79,0,0,1,0,16.11C91.41,343.58,90.72,361.18,90.16,387.76Z"/><path class="cls-4" d="M102.36,389l-12.58-.84v-.36C90.35,361,91,343.41,91.9,334.11l0-.21a78.4,78.4,0,0,0,0-15.83,60.45,60.45,0,0,0-1.33-8c-.25-1.18-.52-2.4-.78-3.86a44.46,44.46,0,0,1-.3-14c.34-3.65.76-8.2.83-15.64,0-3,0-5.4-.06-7.52-.1-5.66-.16-8.78,1.39-13.72,1-3,3.49-11.14,8.49-11.88,1.74-.26,2.82.5,5.17,2.16,1.1.77,2.46,1.73,4.33,2.91a57,57,0,0,0,8.65,4.56c2,.86,3.12,1.34,4.15,2.95,2,3.22,1.1,6.44-1.45,15-.43,1.45-.9,3-1.41,4.81-2.71,9.39-4.66,16.16-5.8,22.94a52.49,52.49,0,0,0-.72,10.22c0,3.09-.08,7.77-.34,15.35-.5,14.83-.76,22.25-1.59,26.74-.74,4-1.52,6.81-2.5,10.35-1,3.81-2.37,8.56-4.1,16.6-.76,3.49-1.47,7-2.11,10.55Zm-11.82-1.54,11.2.75c.63-3.41,1.32-6.86,2.05-10.25,1.74-8.06,3.06-12.82,4.12-16.64,1-3.52,1.75-6.3,2.48-10.29.83-4.43,1.08-11.84,1.58-26.59.26-7.6.31-12.28.34-15.37a52.88,52.88,0,0,1,.73-10.33c1.15-6.82,3.1-13.62,5.81-23,.52-1.78,1-3.38,1.42-4.82,2.48-8.36,3.4-11.49,1.54-14.42-.91-1.42-1.82-1.81-3.81-2.67a58.77,58.77,0,0,1-8.76-4.61c-1.88-1.19-3.26-2.16-4.36-2.94-2.25-1.59-3.18-2.24-4.63-2-4.53.68-7,8.44-7.88,11.36-1.51,4.83-1.46,7.73-1.36,13.49,0,2.12.08,4.52.06,7.54-.07,7.46-.49,12-.83,15.7-.47,5-.74,8,.29,13.81.26,1.45.52,2.66.78,3.83A62.89,62.89,0,0,1,92.65,318a79.87,79.87,0,0,1,0,16l0,.21C91.8,343.42,91.11,360.83,90.54,387.41Z"/><path class="cls-3" d="M71.83,100.87c1.58,2.12,1.38,4.19,1.7,6a13.39,13.39,0,0,0,7.71,9.25,12.34,12.34,0,0,0,11.26-.77c2.54-1.68,3.8-4.46,6.32-10,.76-1.67,1.48-3.52,1.85-4.48A55.68,55.68,0,0,0,103,94.4a15.53,15.53,0,0,0-4-13.73A15.7,15.7,0,0,0,87.87,76c-6.51.15-10.53,4.76-13.11,7.71-4,4.57-7.56,11.92-5.24,15C70.16,99.55,70.84,99.54,71.83,100.87Z"/><path class="cls-5" d="M70.8,124.09A25.48,25.48,0,0,0,55,129a26.1,26.1,0,0,0-8.23,11.2c-3.12,7.34-2.8,13.89-2.63,17.79.36,8.76.53,20.44.07,36.69l16.72-1.13a33.47,33.47,0,0,0,3.4-14.2c.08-11.83-6.59-22.21-8.34-21.69-1.92.56.15,14.85,2.31,24.37,1.42,6.27,2.34,7.09,2.63,11.52.49,7.37-1.62,11.81-3.62,19.1C55,221,54.44,227.32,53.68,235.74A116.5,116.5,0,0,0,55,266a35.17,35.17,0,0,1,13.51-7.9c2.8-.86,9.18-2.4,27,1.65A174.17,174.17,0,0,1,121.85,268a73.06,73.06,0,0,0,4-12.51,79.75,79.75,0,0,0-1-35.9c-1.64-6.32-3.36-12.92-7.9-20.42-2.53-4.17-4.18-5.73-4.94-9.55-1-5.13.86-7.77,3-16.8a102.73,102.73,0,0,0,2.64-15.8c-.11,0-1.25,5.69-5.71,27.64l-2.52,12.44a114.61,114.61,0,0,0,19.42,2.07c4,.08,7.75-.06,11.2-.33a85.84,85.84,0,0,1-4-15.48c-2-12.7.11-17.84-2.31-31-1.46-8-2.34-12.4-5.92-16.8-6-7.3-15-9-19.11-9.55a30.25,30.25,0,0,1-6.25,7.25c-3.07,2.57-10.92,9.14-19.43,6.58C76.68,138,72,131.71,70.8,124.09Z"/><path class="cls-6" d="M96.94,149.31c.89.82,2.94-.22,3.88-.69,1.54-.79,4.8-2.9,7.07-8.73l.83,3.46a21.5,21.5,0,0,0,3.46-10.95,25.73,25.73,0,0,0-1.52-8.72c-1.49-4.74-2.6-4.85-3.61-8.46-.66-2.35-.46-3.29-.27-11.77.14-6.55.21-9.86,0-11.78-.47-4.28-.9-8.17-3.47-12a17.58,17.58,0,0,0-20.92-7.35A20.21,20.21,0,0,0,72.14,80c-1.51,2.23-1.35,3-4.3,13.44-1.11,4-2.1,8-3.32,11.92-1.92,6.18-3.11,9-1.66,11.77.87,1.7,2.06,2.1,2.35,4,.34,2.18-.81,4.13-1.8,5.82-1.95,3.33-3.79,4.07-3.46,5.4s2.18.92,4,2.64c2.58,2.42,2.53,6.64,2.5,9,0,4-1.23,6-.56,6.38s1.94-1.75,6.38-6c2.69-2.56,3.83-3.29,4.29-5.13s-.28-2.29-.41-4.85c-.18-3.41,1-3.94,1.66-8.31.41-2.78.82-5.53-.28-8.59a13.52,13.52,0,0,0-1.74-3.24c-4.52-6.86-2.58-17.27-2.3-18.64.2-1,2.13-10.77,6.32-11.48.38-.06,2.13-.28,4.1-.45s2.81-.16,3.46-.83c.89-.91.6-2.25,1.11-2.35s.91,1,1.52,1.8c1.66,2.25,3.85,1.9,6,3.32,2.47,1.67,3.21,4.65,3.74,6.93.58,2.46.24,3.73-1.19,12.13-1.34,7.82-1.5,9.35-1.58,11.15-.19,4.21.18,4,.14,7.76,0,4.15-.81,5.25-2.36,13.57-.36,1.93-.87,4.84-1.38,8.46l3.88-.14C96.41,147.17,96.27,148.69,96.94,149.31Z"/></g></svg>
