<svg xmlns="http://www.w3.org/2000/svg" viewBox="0 0 200 450"><defs><style>.cls-1{fill:#318bbc;}.cls-2{fill:#055477;}.cls-3{fill:#649abf;}.cls-4{fill:#e2c4a6;}.cls-5{fill:#e7d1b7;}.cls-6{fill:#aa7f63;}.cls-7{fill:#bedfd8;}.cls-8{fill:#90ddcb;}</style></defs><title>Person_2</title><g id="Person_2" data-name="Person 2"><path class="cls-1" d="M106.48,385.81c1.7,1.53.63,3.8.67,9.46.06,8.48,2.51,10.41.66,13.94-1,1.82-3.08,3-7.3,5.31-5.44,3-8.79,4.78-13.61,5.47-6.06.87-14.15-.11-14.93-3.15-.13-.5-.13-1.28,2-4.15,3.46-4.69,5.32-5.13,8-8.3,3.4-4.06,5.1-9,6-11.61,1.23-3.6,1.19-5,2.82-6.31.48-.38,1.59-1.12,8.46-1.33C105.41,385,106.16,385.51,106.48,385.81Z"/><path class="cls-1" d="M126.73,394.27c-1,1-.79,1.48-2.32,8.13-1.38,6-1.94,7.42-1,9,.77,1.27,1.83,1.45,4.32,2.66,4.43,2.16,4.39,3.22,8.13,5.31,0,0,8.07,4.49,16.59,2.82,1.28-.25,2.59-.66,3-1.66.61-1.51-1.18-3.52-2.16-4.65a78.21,78.21,0,0,1-8.13-11.12c-3.88-7.19-.63-13.53-3.81-14.93-.77-.34-1.08,0-6.14,1.49C128.6,393.26,127.86,393.11,126.73,394.27Z"/><path class="cls-2" d="M108.32,407.87l.24,4.78-6.82,2.63c-.27-.64-.55-1.27-.83-1.91a22.95,22.95,0,0,1-12.55,7.29c-6,1.34-11.4.17-13.51-.84l-3-1.43h0l.24-3.95h0L75.57,416c2.72,1.2,7.54,1.8,12.19,1.07,2.87-.45,5.7-1.78,11.24-4.42C102.92,410.78,106.11,409.08,108.32,407.87Z"/><path class="cls-2" d="M123,411l-.22,4.91,6.13,2.7.75-2a20.53,20.53,0,0,0,1.82,2.08,20.94,20.94,0,0,0,9.46,5.41c5.38,1.37,10.24.17,12.14-.86l2.69-1.48h0l-.22-4h0l-3.11,1.6c-2.45,1.24-6.79,1.85-11,1.1-2.59-.46-5.13-1.82-10.1-4.54C127.82,414,125,412.21,123,411Z"/><path class="cls-2" d="M96.61,410.11c-.74-2.32-2.26-3.17-3.08-4.43-1.28-1.95-.55-4.38.66-8.42a29,29,0,0,1,6.87-11.52c.45-.48.83-.86,1.1-1.12l5.18,2.1.15,20.46L97,412.41A7.51,7.51,0,0,0,96.61,410.11Z"/><path class="cls-2" d="M81.86,403.83a17.78,17.78,0,0,0,4.81-4,22.67,22.67,0,0,0,3.93-7.9A39.79,39.79,0,0,0,92,386.61l-2.31.11A66.23,66.23,0,0,1,85.21,398C84.12,400.12,83,402.08,81.86,403.83Z"/><path class="cls-2" d="M131.76,412.65c1.19-.33.72-2.19,2.47-4.86s2.91-2.13,3.83-4.17.42-4.11-.17-6.57a19.39,19.39,0,0,0-2.56-6c-1.78.72-3.6,1.48-5.45,2.3-1.34.59-2.65,1.19-3.92,1.79a23.57,23.57,0,0,0-2.13,13.29,22.2,22.2,0,0,1,3.15,1.45C130,411.59,130.7,412.94,131.76,412.65Z"/><path class="cls-2" d="M146.49,407a19,19,0,0,1-3.53-4.28A19.4,19.4,0,0,1,140.32,392a19.67,19.67,0,0,1,.2-2l1.26.21a41.36,41.36,0,0,0,1.15,7.56A40.78,40.78,0,0,0,146.49,407Z"/><path class="cls-2" d="M95.66,388.93a15.57,15.57,0,0,1,1.67.27,14,14,0,0,1,4.5,1.91,17.85,17.85,0,0,0-5.92-1.54,12.27,12.27,0,0,0-4.11.2,23,23,0,0,0-3.42,1.17A12.14,12.14,0,0,1,95.66,388.93Z"/><path class="cls-2" d="M94.57,392.19a15.57,15.57,0,0,1,1.67.27,14,14,0,0,1,4.5,1.91,17.85,17.85,0,0,0-5.92-1.54,12.27,12.27,0,0,0-4.11.2,20.47,20.47,0,0,0-3.42,1.17A12.06,12.06,0,0,1,94.57,392.19Z"/><path class="cls-2" d="M94.19,395.59a11.44,11.44,0,0,1,1.66.27,13.79,13.79,0,0,1,4.51,1.9,17.91,17.91,0,0,0-5.92-1.54,12.34,12.34,0,0,0-4.12.2,20.58,20.58,0,0,0-3.41,1.18A12,12,0,0,1,94.19,395.59Z"/><path class="cls-2" d="M137.56,392.79a9.79,9.79,0,0,1,1.21.2,10.12,10.12,0,0,1,3.27,1.38,12.93,12.93,0,0,0-4.3-1.12,8.62,8.62,0,0,0-3,.15,14.64,14.64,0,0,0-2.48.85A8.7,8.7,0,0,1,137.56,392.79Z"/><path class="cls-2" d="M137.56,395.26a9.79,9.79,0,0,1,1.21.2,9.89,9.89,0,0,1,3.27,1.39,12.45,12.45,0,0,0-4.3-1.12,8.84,8.84,0,0,0-3,.14,15.83,15.83,0,0,0-2.48.85A8.85,8.85,0,0,1,137.56,395.26Z"/><path class="cls-2" d="M138,398a8.59,8.59,0,0,1,1.2.19,10,10,0,0,1,3.28,1.39,12.74,12.74,0,0,0-4.3-1.12,8.89,8.89,0,0,0-3,.14,16.33,16.33,0,0,0-2.48.85A8.81,8.81,0,0,1,138,398Z"/><path class="cls-3" d="M66.92,219.54a17.56,17.56,0,0,0,.22,6.86c.36,1.61.72,2.17,1.11,3.54a19.41,19.41,0,0,1,.22,8.4c-.47,3.75.55,3.93,2.43,15.93.78,5,1.55,9.86,2,16.37s.09,7.41.88,11.5c1.09,5.63,2.1,5.46,2.88,10.84.65,4.53.19,6.38,1.77,9.73,1.1,2.36,1.82,2.49,2.21,4.43.53,2.68-.51,4.05,0,7.52a19.82,19.82,0,0,0,.88,3.32c1.42,4.8-.31,9.54-.88,11.5-4,13.65,5.87,35.36,3.76,43.58a5.87,5.87,0,0,0,0,4c.9,2,2.87,2,3.32,4,.24,1.06-.29,1.3-.22,3.54,0,1.46.06,2.2.44,2.66,1.07,1.31,3.89-.31,7.74-.67,6.29-.59,10.46,2.64,11.5,1.11.57-.84-.72-1.72-.44-4s1.76-2.75,2.21-4.65c.61-2.56-1.48-4.22-2.65-7.08-1.47-3.57-.31-6.14.44-11.28,1.77-12.08-2.07-15.35-.66-27.65a35.81,35.81,0,0,0,.44-7.52c-.24-3.7-1-5.08-.66-8.19.33-2.82,1.21-3.64,1.76-5.75,1.3-4.93-1.28-9-2.65-12.61-1.86-4.92-.72-7.06.89-22.78.57-5.67,1.3-14,1.76-24.33,2.18,10.5,4.5,18.88,6.2,24.55,3.19,10.62,4.66,13.23,6.86,22.78A167.35,167.35,0,0,1,124,319.3a77.35,77.35,0,0,1,.67,10.62,86,86,0,0,1-1.11,11.51c-2,15.6,1,15.9-1.33,26.54-1.26,5.76-2.68,8.17-1.54,12.17.93,3.27,2.84,5,2.43,8.62-.18,1.59-.75,3-.22,5.09.23.92.68,2.75,2,3.32,1.65.72,2.88-1.37,6.64-2.88,3.92-1.57,5.36-.39,9.07-2.43.69-.38,3.32-1.83,3.09-3.1s-3-1.2-3.32-2.65c-.2-1,1-1.6,1.77-3.1,1.22-2.24.66-4.64.45-6-.13-.81,0-.68,1.77-19,2-19.85,1.75-19.08,2-20.13,1-4.39,2.17-7.69,1.32-11.51a9.31,9.31,0,0,1-.22-4.42c.49-2.19,1.59-2.56,2-4.43.49-2.22-.7-3.42-1.32-6-.85-3.45.13-6.18.66-8.4,1.14-4.79,1-12.34.66-27.43-.31-14.93-.47-22.39-2.21-29.65-1.1-4.6-2.82-10.05-4.64-19.9-.74-4-1.24-7.28-1.55-9.52l-29.64-1.32C94.31,214.58,68.54,213.55,66.92,219.54Z"/><path class="cls-1" d="M68.74,228a18.3,18.3,0,0,0,6.79-.07,15.17,15.17,0,0,0,6.64-2.9,14.63,14.63,0,0,0,4.88-7.28,11.06,11.06,0,0,1-2.47,6.72A11.5,11.5,0,0,1,78.85,228,16.77,16.77,0,0,1,68.74,228Z"/><path class="cls-1" d="M141.71,227.8a13.21,13.21,0,0,1-1.57.32,7.82,7.82,0,0,1-3.29-.42,11.27,11.27,0,0,1-5.57-3.24,10.44,10.44,0,0,1-2.48-5.2,4.47,4.47,0,0,0-1.2,2.88c0,3.7,5.79,7.42,10.54,6.8A12,12,0,0,0,141.71,227.8Z"/><path class="cls-1" d="M107,244.72c1.22-.9,2.6-1.94,2.86-2.14,1.6-1.29,1.88-4.14,2.23-8.13a41.36,41.36,0,0,0-.45-11.08,38.71,38.71,0,0,0-.89-3.84l-6.7-.27a73.61,73.61,0,0,1,1.61,26.44C106,245.47,106.46,245.14,107,244.72Z"/><path class="cls-4" d="M84.17,81.63a21,21,0,0,1-3.67,20.86l21.86,11.34a42.54,42.54,0,0,1,8.52-9.68c5.89-4.9,11.4-6.67,11-8.35-.48-2.1-9.18.21-12.52-4-2.29-2.91-1.19-7.75.5-12Z"/><path class="cls-5" d="M78.85,68.85a25.86,25.86,0,0,0,1.31,5.84s.5,1.41,1.14,2.72A24.38,24.38,0,0,0,91.44,88.07c2.16,1,5,2.42,8.56,1.75,4.36-.83,6.87-4.24,8.39-6.29a22.92,22.92,0,0,0,4.19-14c.1,1.57.17,2.78.19,3.76,0,.2,0,.57.21.65.42.19,1.38-1.13,1.48-1.27.71-1,1-2,1.38-4.44.64-3.87.54-4.63.07-5.27,0-.06-.78-1-1.52-.9-.9.17-1.1,1.84-1.41,1.79s-.07-2.93-.52-6.37a27.24,27.24,0,0,0-.93-4.23c-1-3.74-1.56-5.6-3.13-6.79a5.45,5.45,0,0,0-3.93-1.24,13.87,13.87,0,0,1-2.34.62,9.08,9.08,0,0,1-2.41-.31c-1.94-.23-2.26.77-4.92,1.14-2,.27-2.13-.23-3.93.1a10.86,10.86,0,0,0-3.69,1.48c-3.59,2.16-5.43,5.79-6.23,7.41A23.09,23.09,0,0,0,78.62,66c-.24-1.37-1.06-2.26-1.82-2.25s-1.48,1.3-1.56,1.47c-.57,1.28-.17,2.54.52,4.58a8.94,8.94,0,0,0,2.25,4c.06.06,1.4,1.26,1.82,1s0-1-.32-2.18A25.34,25.34,0,0,1,78.85,68.85Z"/><path class="cls-6" d="M113.71,62.46a17.14,17.14,0,0,0-.22-9.06,14.84,14.84,0,0,0-3.92-6.66,15.9,15.9,0,0,0-7.48-4c-1.56-.4-1.59-.19-8.35-.39C88,42.14,87,42,85.26,42.71a11.47,11.47,0,0,0-4.56,4A18.84,18.84,0,0,0,77,58a14.27,14.27,0,0,0,1.64,7.65,11,11,0,0,0,1.42,2,26.12,26.12,0,0,1,.32-6.33c.45-2.57.83-5,2.51-7.53a15,15,0,0,1,6.55-5.46,14.82,14.82,0,0,1,8.3-.87,16.66,16.66,0,0,1,9.06,4.8,18.7,18.7,0,0,1,5.45,13.86A15.49,15.49,0,0,0,113.71,62.46Z"/><path class="cls-7" d="M83.09,99.8a18.07,18.07,0,0,0,5.59,4.86c6.44,3.55,13.23,1.86,15.5,1.26,7-1.86,6.95-5.18,11.35-5.58,8.46-.78,19.37,10.53,19.83,21.62.25,6.18-2.92,7.88-4.15,14.6-1.19,6.52-.18,15.73,8.65,28.12.52,3.42,1,6.91,1.44,10.45a406.54,406.54,0,0,1,3.07,42.71c-7.11,0-12.9-.07-16.94-.18a115.22,115.22,0,0,0-13.7,0,99.93,99.93,0,0,0-11.36,1.62c-10.82,2.07-10.53,3.42-14.77,3.07-5.47-.46-7.69-2.86-11.36-1.27a19.05,19.05,0,0,1-5.4,2,15.89,15.89,0,0,1-3.79.18,78.22,78.22,0,0,1-.72-16.58c.4-6.22,1.36-9.51,3.61-20.55,1.07-5.27,2.6-12.83,4-21.44,1.87-11.87,2.8-18,2.52-26.14s-1.4-9-1.26-14.59C75.43,113.64,79.51,105.35,83.09,99.8Z"/><path class="cls-8" d="M83.09,99.8c-1.67.65-4.19,1.67-7.16,3.1-6.28,3-9.59,4.55-12,7.54-2.09,2.66-2.61,5.51-3.56,11.11-1.24,7.29-.21,8.42-.84,23.06a56,56,0,0,0,0,8.59,82,82,0,0,0,2.09,10.69c1.1,4.7,1.62,6.23,2.73,8a10.34,10.34,0,0,0,4,4c2.3,1.15,4.48.83,6.5.62,6.14-.61,5.35.47,12.36,0,9.27-.61,20-1.33,30-8.17a41.22,41.22,0,0,0,8.59-8l-3.56-6.71c-5.61.11-10.27.17-13.63.21-13.76.14-18.11,0-21.38-.21-4.33-.25-7.84-.6-10.06-.84A79.47,79.47,0,0,0,77.39,136c-.48-5.19-1.33-7-1.46-9.85-.24-5,1.55-12.5,11.54-22.23a6.59,6.59,0,0,1-3.15-2A6.5,6.5,0,0,1,83.09,99.8Z"/><path class="cls-5" d="M91.54,139.18c-1.05-1.29-2.31-1.75-3.33-2.6A21,21,0,0,0,78.1,132c-.77-.08-2.77-.29-3.09.45s1.21,2.16,2,2.79c1.72,1.34,2.79,1.13,3.93,2.55a2.8,2.8,0,0,1,.83,1.91c-.07,1-1,1.67-2.25,2.6a14.65,14.65,0,0,1-1.79,1.14l-.22,8.52a11.29,11.29,0,0,0,3.13.49,11.71,11.71,0,0,0,5.59-1.32A11.34,11.34,0,0,0,87.57,149c1.76-3.52.83-6.21,2.6-7.6a3.57,3.57,0,0,1,2.4-.68A9.2,9.2,0,0,0,91.54,139.18Z"/><path class="cls-8" d="M112.07,101.64l8.55-7.34c2.59.87,6.65,2.13,11.73,3.36,8.06,1.94,10.68,1.83,13.63,4.19,2.64,2.11,3.71,5.32,5.87,11.74,2.52,7.54,3.32,13.52,4.19,20.33.81,6.36,1.2,9.6.63,12.78-.86,4.72-2.18,4.69-3.78,11.74-.76,3.39-.87,5.22-2.51,6.71-2,1.81-4.79,1.75-6.92,1.67-11.69-.42-17.54-.63-18.65-.84-3.83-.7-1.66-.56-17.82-5-5.44-1.5-8.29-2.24-12.15-4.19a45.32,45.32,0,0,1-8.6-5.66,8.57,8.57,0,0,1,1.47-8.59,7.9,7.9,0,0,1,4.19-2.31,68.56,68.56,0,0,0,17,3.15c9.36.51,13.2-2,24.73-1,2.26.19,7.45.74,7.49.46s-11.78-1.1-12.59-5c-.37-1.81,1.61-2.81,3.17-5.61,3.29-5.89,1.57-14.27-2-19.93C123.74,102.64,113.15,101.72,112.07,101.64Z"/><path class="cls-5" d="M126.38,143.75a18.25,18.25,0,0,1,3.12-6.9c2.31-3.15,5-4.6,8-6.23a25.62,25.62,0,0,1,8.12-2.57c1.59-.22,2.85-.21,3.38.54a1.52,1.52,0,0,1,0,1.76c-.52.58-1.53.13-3,.14a10.34,10.34,0,0,0-3.92,1.08,22.76,22.76,0,0,0-6.63,3.79c.08.13,4.91-3.62,10.06-3.91.24,0,0,0,3.48.05,3,0,3.9,0,4.23.62a1.62,1.62,0,0,1-.41,1.74c-.66.65-1.62.41-3.57.29a21.84,21.84,0,0,0-4.52.08,14.06,14.06,0,0,0-4.32,1.46c-2.12,1.05-3.82,2.46-3.73,2.61s2-1.32,5-2.45c4.64-1.77,10.41-2.18,11.07-.62a1.61,1.61,0,0,1-.54,1.62c-.73.65-1.83.24-3.19.16s-2.44.3-4.65,1a17.28,17.28,0,0,0-5.72,2.95,32.81,32.81,0,0,0,4.77-1.87c2.15-1,3.38-1.64,5.11-1.41.22,0,1.71.23,1.79.8s-1.29,1.23-2.73,1.9c-1.91.9-3.17.91-4.21,1.58-.79.51-1.69,1.13-1.69,1.13l-.18.14Z"/></g></svg>
