<?xml version="1.0" encoding="utf-8"?>
<!-- Generator: Adobe Illustrator 24.3.0, SVG Export Plug-In . SVG Version: 6.00 Build 0)  -->
<svg version="1.1" id="Layout" xmlns="http://www.w3.org/2000/svg" xmlns:xlink="http://www.w3.org/1999/xlink" x="0px" y="0px"
	 viewBox="0 0 226.8 226.8" style="enable-background:new 0 0 226.8 226.8;" xml:space="preserve">
<style type="text/css">
	.st0{fill:#FFFFFF;}
	.st1{stroke:#000000;stroke-width:0.2835;}
	.st2{fill:none;stroke:#000000;stroke-width:0.2835;}
</style>
<g>
	<g>
		<polygon class="st0" points="140,107.3 140,170.3 174.2,170.3 174.2,159 151.8,159 151.8,107.3 		"/>
		<path class="st0" d="M113.2,49.7c-3.6,0-6.5,0.7-8.8,1.8c-6.6,3.2-8.2,10.1-8.2,16.2v12.7h12.5V66.3c0-3.2,1.8-5.2,4.7-5.2
			c1.3,0,2.4,0.5,3.3,1.3c0.9,0.9,1.4,2.3,1.4,4v14.1h12.5V67.7C130.6,56.3,124.3,49.7,113.2,49.7z"/>
		<g>
			<path class="st0" d="M96.2,107.3V154c0,7.8,2.7,13,7.9,15.7c2.5,1.3,5.6,1.9,9.2,1.9c11.2,0,17.4-6.2,17.4-17.6v-46.7l-12.5,0
				v48.1c0,1.7-0.5,3-1.4,4c-0.8,0.8-1.9,1.3-3.3,1.3c-2.9,0-4.7-2.1-4.7-5.2v-48.1L96.2,107.3z"/>
		</g>
		<polygon class="st0" points="77.2,107.3 77.2,147.5 76.6,147.5 65,108.5 53.7,108.5 53.7,171.5 63.2,171.5 63.2,131.3 63.8,131.3
			75.5,170.3 86.7,170.3 86.7,107.3 		"/>
	</g>
	<g>
		<g>
			<rect x="153" y="107.3" class="st1" width="2.3" height="50.6"/>
			<polygon class="st1" points="174.2,157.9 174.2,157.9 174.2,157.9 174.2,171.5 176.6,171.5 176.6,157.9 			"/>
		</g>
		<g>
			<path class="st1" d="M111.5,62.7c-0.5,0.3-0.9,0.7-1.2,1.2c-0.3,0.6-0.5,1.4-0.5,2.4v14.1h2.3V66.3c0-2,0.8-3.4,2.4-3.9
				c-0.4-0.1-0.7-0.2-1.2-0.2C112.7,62.2,112.1,62.4,111.5,62.7z"/>
			<path class="st1" d="M115.6,48.6c-0.4,0-0.8,0-1.2,0c11.1,0.5,17.4,7.6,17.4,19.1v12.7h2.3V67.7
				C134.1,55.8,127.4,48.6,115.6,48.6z"/>
		</g>
		<g>
			<path class="st1" d="M113.4,159.5c0.4,0,0.7-0.1,1-0.1c0,0,0.1,0,0.1,0c-1.5-0.5-2.4-1.9-2.4-3.9v-48.1h-2.3v48.1
				C109.8,157.9,111.1,159.5,113.4,159.5z"/>
			<path class="st1" d="M131.8,107.3L131.8,107.3L131.8,107.3l0,46.7c0,5.7-1.5,10.3-4.6,13.6c-2.9,3.1-7.2,4.9-12.8,5.1
				c0.4,0,0.8,0,1.2,0c12.4,0,18.6-7.4,18.6-18.7v-46.7H131.8z"/>
		</g>
		<g>
			<polygon class="st1" points="76.1,140.8 76.1,133.7 68.2,107.3 65.9,107.3 75.9,140.8 			"/>
			<polygon class="st1" points="64.4,138 64.4,171.5 66.7,171.5 66.7,145.1 64.6,138 			"/>
			<rect x="87.9" y="107.3" class="st1" width="2.3" height="64.2"/>
			<rect x="76.1" y="133.7" class="st1" width="0" height="7.2"/>
			<rect x="64.4" y="138" class="st1" width="0" height="33.5"/>
		</g>
	</g>
	<g>
		<g>
			<polygon class="st2" points="153,157.9 153,107.3 151.8,107.3 151.8,159 174.2,159 174.2,157.9 			"/>
			<polygon class="st2" points="140,170.3 140,107.3 138.9,107.3 138.9,107.3 138.9,171.5 138.9,171.5 174.2,171.5 174.2,170.3
				"/>
		</g>
		<g>
			<path class="st2" d="M114.4,48.6c-0.4,0-0.8,0-1.2,0c-6.1,0-10.5,1.8-13.5,4.9c-3.2,3.4-4.7,8.3-4.7,14.2v12.7h1.2V67.7
				c0-6.1,1.6-13,8.2-16.2c2.3-1.1,5.2-1.8,8.8-1.8c11.1,0,17.4,6.5,17.4,17.9v12.7h1.2V67.7C131.8,56.2,125.5,49.1,114.4,48.6z"/>
			<path class="st2" d="M113.4,61c-2.9,0-4.7,2.1-4.7,5.2v14.1h1.2V66.3c0-0.9,0.2-1.7,0.5-2.4c0.3-0.5,0.7-0.9,1.2-1.2
				c0.5-0.3,1.1-0.5,1.8-0.5c0.4,0,0.8,0.1,1.2,0.2c1.5,0.5,2.4,1.9,2.4,3.9v14.1h1.2V66.3c0-1.7-0.5-3-1.4-4
				C115.8,61.5,114.7,61,113.4,61z"/>
		</g>
		<g>
			<path class="st2" d="M131.8,107.3h-1.2V154c0,11.3-6.2,17.6-17.4,17.6c-3.6,0-6.7-0.7-9.2-1.9c-5.2-2.6-7.9-7.9-7.9-15.7v-46.7
				H95V154c0,11.7,5.8,18.7,18.2,18.7c0.4,0,0.8,0,1.1,0c0,0,0,0,0,0c5.6-0.2,9.9-2,12.8-5.1c3.1-3.3,4.6-8,4.6-13.6L131.8,107.3
				L131.8,107.3z"/>
			<path class="st2" d="M113.4,160.6c1.3,0,2.4-0.5,3.3-1.3c0.9-0.9,1.4-2.3,1.4-4v-48.1h-1.2v48.1c0,2-0.8,3.4-2.4,3.9
				c0,0-0.1,0-0.1,0c-0.3,0.1-0.7,0.1-1,0.1h0c-2.3,0-3.5-1.6-3.5-4.1v-48.1h-1.2v48.1C108.7,158.6,110.5,160.6,113.4,160.6z"/>
		</g>
		<g>
			<polygon class="st2" points="76.6,147.5 77.2,147.5 77.2,107.3 76.1,107.3 76.1,107.3 76.1,140.8 76.1,140.8 75.9,140.8
				65.9,107.3 65.9,107.3 52.5,107.3 52.5,107.3 52.5,171.5 52.5,171.5 53.7,171.5 53.7,108.5 65,108.5 			"/>
			<polygon class="st2" points="86.7,107.3 86.7,170.3 75.5,170.3 63.8,131.3 63.2,131.3 63.2,171.5 64.4,171.5 64.4,138 64.4,138
				64.6,138 74.6,171.5 74.6,171.5 87.9,171.5 87.9,107.3 			"/>
		</g>
	</g>
	<g>
		<polygon points="74.1,88 74.1,102.3 71,102.3 71,88 65.6,88 65.6,85.4 79.4,85.4 79.4,88 		"/>
		<path d="M88,99.8c2.1,0,3.6-1.5,3.6-4.2V85.4h3.1v10.2c0,4.4-2.9,6.9-6.7,6.9c-3.8,0-6.7-2.5-6.7-6.9V85.4h3.1v10.2
			C84.4,98.3,85.9,99.8,88,99.8"/>
		<path d="M98,85.4h4.8c3.8,0,5.7,1.7,5.7,4.4c0,1.7-1.1,2.9-2.3,3.5c1.9,0.5,3.4,2,3.4,4.1c0,3-2.3,4.8-5.9,4.8H98V85.4z
			 M102.6,92.6c1.7,0,2.9-0.8,2.9-2.3c0-1.5-1.1-2.3-2.9-2.3H101v4.5H102.6z M103.4,99.7c1.8,0,3-0.9,3-2.4c0-1.5-1.2-2.4-3-2.4H101
			v4.8H103.4z"/>
		<path d="M128.6,93.9c0,4.8-3.8,8.7-8.6,8.7c-4.8,0-8.6-3.9-8.6-8.7c0-4.8,3.8-8.7,8.6-8.7C124.7,85.2,128.6,89.1,128.6,93.9
			 M114.5,93.9c0,3.3,2.4,5.8,5.5,5.8c3,0,5.5-2.5,5.5-5.8c0-3.3-2.4-5.8-5.5-5.8C116.9,88,114.5,90.5,114.5,93.9"/>
		<path d="M134.4,102.3h-3.1V85.4h4.7c3.7,0,6.4,1.9,6.4,5.2c0,2.3-1.3,3.8-3.3,4.6l5.2,7h-3.6l-4.8-6.5h-1.5V102.3z M134.3,93.3
			h1.6c1.9,0,3.2-0.9,3.2-2.6c0-1.7-1.3-2.6-3.2-2.6h-1.6V93.3z"/>
		<path d="M161.2,93.3c0,0.3,0,0.6,0,0.9c0,5.2-3.7,8.3-8.1,8.3c-4.7,0-8.6-3.9-8.6-8.7s3.8-8.7,8.6-8.7c3.1,0,5.6,1.6,7.1,4.1
			l-2.6,1.6c-0.9-1.7-2.6-2.8-4.5-2.8c-3,0-5.5,2.5-5.5,5.8s2.4,5.8,5.5,5.8c2.5,0,4.3-1.5,4.8-3.8h-4.7v-2.6H161.2z"/>
	</g>
</g>
</svg>
